<?xml version="1.0" encoding="utf-8"?>
<!-- Generator: Adobe Illustrator 23.0.0, SVG Export Plug-In . SVG Version: 6.00 Build 0)  -->
<svg version="1.1" id="Capa_1" xmlns="http://www.w3.org/2000/svg" xmlns:xlink="http://www.w3.org/1999/xlink" x="0px" y="0px"
	 viewBox="0 0 281.37 33.15" style="enable-background:new 0 0 281.37 33.15;" xml:space="preserve">
<style type="text/css">
	.st0{fill:#FFFFFF;}
	.st1{fill:#294F72;}
</style>
<g>
	<g>
		<path class="st0" d="M30.42,0c-0.01,0.06,0,0.12,0.01,0.19c-0.21,0.24-0.5,0.31-0.78,0.29c-1.29-0.07-2.61,0.31-3.86-0.28
			C25.71,0.13,25.64,0.06,25.57,0C27.19,0,28.8,0,30.42,0z"/>
		<path class="st0" d="M52.5,0.19C52.51,0.12,52.51,0.06,52.5,0c1.61,0,3.23,0,4.84,0c-0.07,0.06-0.14,0.13-0.21,0.19
			C55.59,0.67,54.04,0.7,52.5,0.19z"/>
		<path class="st0" d="M86.81,13.55c0-4.16,0.02-8.33-0.02-12.49C86.79,0.31,87,0.17,87.7,0.18c6.97,0.03,13.94,0.03,20.91,0
			c0.68,0,0.92,0.16,0.84,0.85c-0.1,0.79,0.34,1.84-0.16,2.32c-0.5,0.48-1.53,0.13-2.33,0.14c-5.29,0.01-10.59,0.02-15.88-0.01
			c-0.75,0-0.98,0.18-0.96,0.95c0.06,1.97,0.07,3.94,0,5.91c-0.03,0.85,0.27,0.99,1.03,0.98c4.42-0.04,8.84,0,13.27-0.03
			c0.7,0,0.95,0.13,0.94,0.89c-0.02,2.5,0.01,2.5-2.51,2.5c-3.94,0-7.88,0.02-11.81-0.02c-0.72-0.01-0.92,0.17-0.91,0.91
			c0.04,3.55,0,7.1,0.03,10.65c0.01,0.66-0.15,0.88-0.85,0.88c-2.5-0.01-2.5,0.02-2.5-2.5C86.81,20.91,86.81,17.23,86.81,13.55z"/>
		<path class="st0" d="M52.5,0.19c1.55,0,3.1,0,4.64,0.01c-0.09,0.33-0.39,0.5-0.61,0.72c-4.01,4.02-8.02,8.05-12.06,12.04
			c-0.52,0.51-0.52,0.76,0,1.27c4.04,3.99,8.05,8.02,12.06,12.04c0.21,0.21,0.54,0.36,0.57,0.82c-1.43,0-2.83-0.01-4.24,0
			c-0.46,0-0.66-0.36-0.92-0.62c-3.29-3.28-6.59-6.55-9.85-9.87c-0.52-0.52-0.76-0.5-1.27,0.01c-3.24,3.29-6.52,6.53-9.76,9.81
			c-0.5,0.51-0.99,0.71-1.69,0.68c-1.18-0.05-2.36-0.01-3.52-0.01c-0.05-0.38,0.2-0.48,0.35-0.62c8.69-8.7,17.38-17.39,26.08-26.08
			C52.34,0.3,52.42,0.25,52.5,0.19z"/>
		<path class="st0" d="M121.81,15.26c0-3.65-0.02-7.3,0.02-10.95c0.01-0.69-0.2-0.85-0.86-0.84c-2.84,0.04-5.68,0-8.52,0.03
			c-0.64,0.01-0.86-0.16-0.8-0.8c0.08-0.8-0.32-1.83,0.15-2.34c0.48-0.52,1.52-0.16,2.32-0.16c6.75-0.02,13.5,0,20.25-0.03
			c0.71,0,0.99,0.14,0.89,0.89c-0.11,0.79,0.35,1.85-0.19,2.3c-0.45,0.39-1.48,0.12-2.25,0.12c-2.23,0.01-4.46,0.04-6.68-0.02
			c-0.79-0.02-1.01,0.15-1.01,0.98c0.04,7.2,0,14.4,0.05,21.6c0.01,0.89-0.25,1.06-1.08,1.04c-2.28-0.05-2.28-0.02-2.28-2.34
			C121.81,21.59,121.81,18.42,121.81,15.26z"/>
		<path class="st0" d="M25.78,0.19c1.55,0,3.1,0,4.64-0.01C33.22,2.96,36,5.74,38.8,8.5c0.36,0.36,0.38,0.57,0,0.91
			c-0.55,0.49-1.06,1.04-1.58,1.57c-0.22,0.23-0.4,0.38-0.7,0.06C32.96,7.41,29.25,3.92,25.78,0.19z"/>
		<path class="st0" d="M26.69,11.57C25.72,5.5,20.59,0.62,14.73,0.21C8.05-0.26,2.37,3.58,0.49,9.82C0.33,10.36,0.36,10.96,0,11.43
			c0,1.36,0,2.71,0,4.07c0.06,0.11,0.14,0.21,0.16,0.32c1.14,6.24,6.07,10.71,12.32,11.15C21.02,27.58,28.04,19.98,26.69,11.57z
			 M13.35,23.65c-5.52-0.01-10.09-4.6-10.06-10.11C3.32,8.06,7.95,3.46,13.43,3.49c5.52,0.03,10.04,4.6,10.03,10.13
			C23.44,19.16,18.91,23.66,13.35,23.65z"/>
		<path class="st0" d="M70.68,0.15c-7.2-0.08-13.62,5.83-13.59,13.4c0.03,7.49,5.94,13.43,13.44,13.43c7.32,0,13.21-5.92,13.4-13.08
			C84.12,6.52,77.95,0.24,70.68,0.15z M70.52,23.65c-5.54,0.01-10.08-4.52-10.09-10.05C60.42,8.09,64.98,3.51,70.49,3.49
			c5.48-0.02,10.1,4.59,10.11,10.08C80.61,19.09,76.05,23.64,70.52,23.65z"/>
	</g>
	<g>
		<path class="st1" d="M164.28,27.09l-0.03-12.6l-6.18,10.38h-2.19l-6.15-10.11v12.33h-4.56v-21h4.02l7.86,13.05l7.74-13.05h3.99
			l0.06,21H164.28z"/>
		<path class="st1" d="M185.76,12.5c1.34,1.19,2.01,2.99,2.01,5.39v9.21h-4.38v-2.01c-0.88,1.5-2.52,2.25-4.92,2.25
			c-1.24,0-2.31-0.21-3.22-0.63s-1.61-1-2.08-1.74c-0.48-0.74-0.72-1.58-0.72-2.52c0-1.5,0.56-2.68,1.69-3.54
			c1.13-0.86,2.88-1.29,5.24-1.29h3.72c0-1.02-0.31-1.8-0.93-2.35c-0.62-0.55-1.55-0.83-2.79-0.83c-0.86,0-1.71,0.13-2.54,0.41
			c-0.83,0.27-1.54,0.63-2.12,1.09l-1.68-3.27c0.88-0.62,1.93-1.1,3.17-1.44s2.5-0.51,3.79-0.51
			C182.5,10.71,184.42,11.31,185.76,12.5z M181.77,23.63c0.62-0.37,1.06-0.92,1.32-1.64v-1.65h-3.21c-1.92,0-2.88,0.63-2.88,1.89
			c0,0.6,0.24,1.08,0.71,1.42c0.47,0.35,1.11,0.53,1.93,0.53C180.44,24.18,181.15,24,181.77,23.63z"/>
		<path class="st1" d="M206.66,12.51c1.23,1.2,1.84,2.98,1.84,5.34v9.24h-4.68v-8.52c0-1.28-0.28-2.23-0.84-2.86
			c-0.56-0.63-1.37-0.95-2.43-0.95c-1.18,0-2.12,0.37-2.82,1.09c-0.7,0.73-1.05,1.82-1.05,3.25v7.98H192V10.95h4.47v1.89
			c0.62-0.68,1.39-1.21,2.31-1.58c0.92-0.37,1.93-0.55,3.03-0.55C203.81,10.71,205.43,11.31,206.66,12.51z"/>
		<path class="st1" d="M225,12.5c1.34,1.19,2.01,2.99,2.01,5.39v9.21h-4.38v-2.01c-0.88,1.5-2.52,2.25-4.92,2.25
			c-1.24,0-2.31-0.21-3.22-0.63s-1.61-1-2.08-1.74c-0.48-0.74-0.72-1.58-0.72-2.52c0-1.5,0.56-2.68,1.69-3.54
			c1.13-0.86,2.88-1.29,5.24-1.29h3.72c0-1.02-0.31-1.8-0.93-2.35c-0.62-0.55-1.55-0.83-2.79-0.83c-0.86,0-1.71,0.13-2.54,0.41
			c-0.83,0.27-1.54,0.63-2.12,1.09l-1.68-3.27c0.88-0.62,1.93-1.1,3.17-1.44s2.5-0.51,3.79-0.51C221.74,10.71,223.66,11.31,225,12.5
			z M221.01,23.63c0.62-0.37,1.06-0.92,1.32-1.64v-1.65h-3.21c-1.92,0-2.88,0.63-2.88,1.89c0,0.6,0.24,1.08,0.71,1.42
			c0.47,0.35,1.11,0.53,1.93,0.53C219.68,24.18,220.39,24,221.01,23.63z"/>
		<path class="st1" d="M248.07,10.95v13.44c0,2.96-0.77,5.16-2.31,6.6c-1.54,1.44-3.79,2.16-6.75,2.16c-1.56,0-3.04-0.19-4.44-0.57
			c-1.4-0.38-2.56-0.93-3.48-1.65l1.86-3.36c0.68,0.56,1.54,1,2.58,1.33s2.08,0.5,3.12,0.5c1.62,0,2.82-0.37,3.58-1.09
			c0.77-0.73,1.16-1.83,1.16-3.32V24.3c-1.22,1.34-2.92,2.01-5.1,2.01c-1.48,0-2.83-0.33-4.07-0.97c-1.23-0.65-2.21-1.57-2.92-2.75
			s-1.08-2.54-1.08-4.08s0.36-2.9,1.08-4.08c0.72-1.18,1.7-2.09,2.92-2.75c1.23-0.65,2.58-0.97,4.07-0.97
			c2.34,0,4.12,0.77,5.34,2.31v-2.07H248.07z M242.27,21.38c0.79-0.73,1.19-1.69,1.19-2.87s-0.4-2.13-1.19-2.87
			c-0.79-0.73-1.8-1.09-3.04-1.09s-2.26,0.37-3.06,1.09c-0.8,0.73-1.2,1.69-1.2,2.87s0.4,2.13,1.2,2.87
			c0.8,0.73,1.82,1.09,3.06,1.09S241.48,22.11,242.27,21.38z"/>
		<path class="st1" d="M268.14,20.34h-12.21c0.22,1,0.74,1.79,1.56,2.37c0.82,0.58,1.84,0.87,3.06,0.87c0.84,0,1.58-0.13,2.24-0.38
			c0.65-0.25,1.25-0.65,1.81-1.19l2.49,2.7c-1.52,1.74-3.74,2.61-6.66,2.61c-1.82,0-3.43-0.36-4.83-1.07
			c-1.4-0.71-2.48-1.7-3.24-2.96s-1.14-2.69-1.14-4.29c0-1.58,0.38-3,1.13-4.28c0.75-1.27,1.78-2.26,3.09-2.97s2.78-1.06,4.4-1.06
			c1.58,0,3.01,0.34,4.29,1.02c1.28,0.68,2.28,1.66,3.01,2.92c0.73,1.27,1.09,2.75,1.09,4.43C268.23,19.14,268.2,19.56,268.14,20.34
			z M257.19,15.15c-0.72,0.6-1.16,1.42-1.32,2.46h7.95c-0.16-1.02-0.6-1.83-1.32-2.44c-0.72-0.61-1.6-0.92-2.64-0.92
			C258.8,14.25,257.91,14.55,257.19,15.15z"/>
		<path class="st1" d="M278.09,11.31c0.95-0.4,2.04-0.6,3.29-0.6v4.32c-0.52-0.04-0.87-0.06-1.05-0.06c-1.34,0-2.39,0.38-3.15,1.13
			c-0.76,0.75-1.14,1.88-1.14,3.38v7.62h-4.68V10.95h4.47v2.13C276.38,12.3,277.14,11.71,278.09,11.31z"/>
	</g>
</g>
</svg>
